# xmcd
#
# Track frame offsets: 
#        150
#        25387
#        49089
#        86183
#        127453
#        146521
#        176727
#        205741
#        217680
#
# Disc length: 3490 seconds
#
# Revision: 0
# Processed by: cddbd v1.5.2PL0 Copyright (c) Steve Scherf et al.
# Submitted via: ExactAudioCopy v0.99pb5
#
DISCID=860da009
DTITLE=Old Man Brown - Blue Light Special
DYEAR=2010
DGENRE=Funk
TTITLE0=The Funky Grind
TTITLE1=Do What I Do
TTITLE2=Let Me In
TTITLE3=One Life To Live
TTITLE4=You'd Be Suprised
TTITLE5=Delieverd
TTITLE6=I'm A Pilgrim
TTITLE7=Cradle To The Curb
TTITLE8=Downtown Found
EXTD=
EXTT0=
EXTT1=
EXTT2=
EXTT3=
EXTT4=
EXTT5=
EXTT6=
EXTT7=
EXTT8=
PLAYORDER=
